<svg width="26" height="26" viewBox="0 0 26 26" fill="none" xmlns="http://www.w3.org/2000/svg">
<path d="M13.0001 19.5578L6.51192 13.0715L7.80991 11.7515L12.0834 16.025V0.166626H13.9167V16.025L18.1884 11.7533L19.4882 13.0715L13.0001 19.5578ZM3.12941 25.8333C2.28486 25.8333 1.58025 25.551 1.01558 24.9863C0.450914 24.4216 0.16797 23.7164 0.166748 22.8706V18.4285H2.00008V22.8706C2.00008 23.153 2.11741 23.4121 2.35208 23.648C2.58675 23.8838 2.84525 24.0012 3.12758 24H22.8726C23.1537 24 23.4122 23.8826 23.6481 23.648C23.884 23.4133 24.0013 23.1542 24.0001 22.8706V18.4285H25.8334V22.8706C25.8334 23.7152 25.5511 24.4198 24.9864 24.9845C24.4217 25.5491 23.7165 25.8321 22.8707 25.8333H3.12941Z" fill="#002905"/>
</svg>
